<svg width="42" height="62" viewBox="0 0 42 62" fill="none" xmlns="http://www.w3.org/2000/svg">
<g clip-path="url(#clip0_39_1004)">
<path d="M40.6892 18.3623C26.8757 19.7911 27.8907 40.7299 36.0998 51.8893L32.1718 52.6929C32.1718 52.6929 16.3711 26.844 35.1286 9.47722C39.233 8.31742 44.4848 13.228 40.6892 18.3623Z" fill="#471F08"/>
<path d="M1.31031 18.6303C15.1239 20.0586 14.1089 40.9979 5.90022 52.1573L9.82824 52.9613C9.82824 52.9613 25.628 27.1125 6.87139 9.74619C2.76706 8.58541 -2.48475 13.4985 1.31031 18.6303Z" fill="#471F08"/>
<path d="M36.3599 30.2035H5.59912V32.8944H36.3599V30.2035Z" fill="#471F08"/>
<path d="M27.7018 2.66706C27.7062 2.66267 27.7115 2.65877 27.7158 2.65487C20.8974 -3.30542 14.2756 2.63246 14.2756 2.63246L14.3237 2.66706H14.2255C14.4856 3.2606 14.7125 3.85366 14.9288 4.4472C15.1451 5.04074 15.3464 5.6338 15.5377 6.22734C15.634 6.52412 15.7256 6.82089 15.8185 7.11766C15.9115 7.41443 15.9992 7.71072 16.0835 8.00749L16.2126 8.4524L16.3364 8.8978C16.4207 9.19409 16.4978 9.49086 16.5773 9.78763C17.2035 12.1613 17.7113 14.535 18.1328 16.9087C18.5543 19.2824 18.8862 21.6556 19.1444 24.0293C19.1765 24.3259 19.2073 24.6225 19.2369 24.9191L19.2586 25.1418L19.2668 25.3645L19.2836 25.8094L19.3149 26.6997L19.3429 27.5896C19.3785 28.7767 19.406 29.9634 19.4252 31.1499C19.4994 35.8972 19.4411 40.6441 19.2056 45.3915C19.176 45.985 19.1439 46.5784 19.1092 47.1716L19.0529 48.062C19.0346 48.3586 19.0145 48.6552 18.9927 48.9518C18.9101 50.1389 18.8128 51.3256 18.7007 52.5121C18.5886 53.6985 18.4602 54.8854 18.3153 56.0728C18.2402 56.6659 18.1631 57.2594 18.0745 57.853C17.9907 58.4275 17.9006 59.0026 17.7956 59.5771C17.784 59.6166 17.7739 59.6565 17.7652 59.6989C17.6761 59.6429 20.6782 64.9131 24.1645 59.6882C24.1657 59.6699 24.1657 59.6515 24.1645 59.6331H24.178C24.0686 59.0396 23.9757 58.446 23.8889 57.853C23.8022 57.2599 23.7242 56.6659 23.6481 56.0728C23.501 54.8858 23.3725 53.6988 23.2627 52.5121C23.1529 51.3253 23.0565 50.1385 22.9737 48.9518C22.952 48.655 22.9313 48.3587 22.9134 48.062L22.8518 47.1716C22.8165 46.5781 22.7843 45.9847 22.7554 45.3915C22.5199 40.6441 22.4616 35.8972 22.5358 31.1499C22.555 29.9631 22.5825 28.7763 22.6181 27.5896L22.6466 26.6997L22.6779 25.8094L22.6943 25.3645L22.7024 25.1418L22.7246 24.9191C22.7542 24.6228 22.785 24.3262 22.8171 24.0293C23.0734 21.6556 23.4043 19.2819 23.8287 16.9087C24.2531 14.5355 24.7565 12.1613 25.3842 9.78763C25.4647 9.49086 25.5413 9.19409 25.6251 8.8978L25.7494 8.4524L25.878 8.00749C25.9628 7.71072 26.0543 7.41394 26.1434 7.11766C26.2326 6.82138 26.3265 6.52412 26.4238 6.22734C26.6165 5.6338 26.8169 5.04074 27.0327 4.4472C27.2485 3.85366 27.4759 3.2606 27.7365 2.66706H27.7018Z" fill="#471F08"/>
</g>
<defs>
<clipPath id="clip0_39_1004">
<rect width="42" height="62" fill="white"/>
</clipPath>
</defs>
</svg>
